<svg width="22" height="22" viewBox="0 0 22 22" fill="none" xmlns="http://www.w3.org/2000/svg">
<path d="M11 8.87868L14.182 5.6967C14.5725 5.30618 15.2057 5.30617 15.5962 5.6967L16.3033 6.40381C16.6938 6.79433 16.6938 7.4275 16.3033 7.81802L13.1213 11L16.3033 14.182C16.6938 14.5725 16.6938 15.2057 16.3033 15.5962L15.5962 16.3033C15.2057 16.6938 14.5725 16.6938 14.182 16.3033L11 13.1213L7.81804 16.3033C7.42751 16.6938 6.79435 16.6938 6.40383 16.3033L5.69672 15.5962C5.30619 15.2057 5.30619 14.5725 5.69672 14.182L8.8787 11L5.69672 7.81802C5.30619 7.4275 5.30619 6.79433 5.69672 6.40381L6.40383 5.6967C6.79435 5.30617 7.42751 5.30617 7.81804 5.6967L11 8.87868Z" fill="#8769A9"/>
</svg>
