<svg width="22" height="22" viewBox="0 0 22 22" fill="none" xmlns="http://www.w3.org/2000/svg">
<path d="M18 3C18.5523 3 19 3.44772 19 4V18C19 18.5523 18.5523 19 18 19H16H4C3.44772 19 3 18.5523 3 18V4C3 3.44772 3.44772 3 4 3H18ZM5.52637 16.4736H16.4736V5.52637H5.52637V16.4736ZM14 12C14.5523 12 15 12.4477 15 13V14C15 14.5523 14.5523 15 14 15H8C7.44772 15 7 14.5523 7 14V13C7 12.4477 7.44772 12 8 12H14ZM14 7C14.5523 7 15 7.44772 15 8V9C15 9.55228 14.5523 10 14 10H8C7.44772 10 7 9.55228 7 9V8C7 7.44772 7.44772 7 8 7H14Z" fill="#CFCFDB"/>
</svg>
