<svg width="22" height="22" viewBox="0 0 22 22" fill="none" xmlns="http://www.w3.org/2000/svg">
<path d="M16.1013 3.57536C16.4918 3.18484 17.1258 3.18484 17.5163 3.57536L18.2233 4.2824C18.6136 4.67285 18.6136 5.30596 18.2233 5.69646L17.3776 6.54119C19.4946 8.53175 20.3221 10.9754 20.3337 11.01L20.2194 11.3107C19.6771 12.6506 17.1247 18.01 10.9997 18.01L10.6755 18.0051C9.1957 17.9586 7.93172 17.5965 6.86005 17.0588L5.49481 18.425C5.1043 18.8151 4.47117 18.8153 4.08075 18.425L3.37372 17.718C2.98319 17.3275 2.98319 16.6935 3.37372 16.3029L4.40497 15.2707C2.86393 13.7361 2.05866 11.9968 1.78094 11.3107L1.66669 11.01C1.68629 10.9515 4.02941 4.01015 10.9997 4.00994L11.3249 4.01482C12.6738 4.05721 13.8431 4.36344 14.8513 4.82439L16.1013 3.57536ZM13.2975 10.6213C13.3188 10.7479 13.3337 10.8773 13.3337 11.01C13.3337 12.2986 12.2884 13.3439 10.9997 13.3439C10.8671 13.3439 10.7376 13.3291 10.611 13.3078L9.16766 14.7512C9.71823 14.9137 10.3257 15.0099 10.9997 15.01C13.3564 15.01 14.914 13.8766 15.987 12.5891C16.4469 12.0371 16.7948 11.4751 17.0446 11.01C16.7948 10.5448 16.4469 9.98279 15.987 9.43085C15.7654 9.16492 15.5223 8.90642 15.2565 8.66229L13.2975 10.6213ZM10.9997 7.00994C8.64331 7.01005 7.08629 8.14343 6.01337 9.43085C5.55328 9.98295 5.20465 10.5447 4.95477 11.01C5.20463 11.4752 5.55328 12.0369 6.01337 12.5891C6.17293 12.7805 6.34405 12.9682 6.52606 13.1496L8.66669 11.01C8.66682 9.72151 9.71126 8.67711 10.9997 8.67694L12.4968 7.17889C12.037 7.07172 11.5395 7.00994 10.9997 7.00994Z" fill="#9FA4AC"/>
</svg>
