<svg width="22" height="22" viewBox="0 0 22 22" fill="none" xmlns="http://www.w3.org/2000/svg">
<path d="M11.3249 4.00488C18.0724 4.21694 20.3337 11 20.3337 11L20.2194 11.3008C19.6771 12.6406 17.1247 18 10.9997 18L10.6755 17.9951C4.78473 17.8102 2.31368 12.6169 1.78094 11.3008L1.66669 11C1.66669 11 3.99995 4.00022 10.9997 4L11.3249 4.00488ZM10.9997 7C8.64316 7.0001 7.08629 8.13338 6.01337 9.4209C5.55318 9.97313 5.20467 10.5347 4.95477 11C5.20467 11.4653 5.55318 12.0269 6.01337 12.5791C7.08629 13.8666 8.64316 14.9999 10.9997 15C13.3564 15 14.914 13.8667 15.987 12.5791C16.447 12.027 16.7948 11.4652 17.0446 11C16.7948 10.5348 16.447 9.97297 15.987 9.4209C14.914 8.13333 13.3564 7 10.9997 7ZM10.9997 8.66699C12.2884 8.66699 13.3337 9.71134 13.3337 11C13.3336 12.2886 12.2883 13.333 10.9997 13.333C9.71123 13.3328 8.66678 12.2885 8.66669 11C8.66669 9.71144 9.71118 8.66717 10.9997 8.66699Z" fill="#8769A9"/>
</svg>
