<svg width="72" height="72" viewBox="0 0 72 72" fill="none" xmlns="http://www.w3.org/2000/svg">
<rect width="72" height="72" fill="white"/>
<path fill-rule="evenodd" clip-rule="evenodd" d="M23.9155 24.022V12H23.2159C17.0215 12 12 17.0215 12 23.2159V24.022L23.9155 24.022ZM23.9155 26.1584L12 26.1584V47.7841C12 53.9785 17.0215 59 23.2159 59H45.528L45.528 47.4864H24.9837H23.9155V46.4182V26.1584ZM38.1197 26.1584L45.528 42.43L45.528 26.1584L38.1197 26.1584ZM41.2344 38.1553L44.5101 45.35H26.816L30.1854 38.1553H41.2344ZM40.2617 36.0189L35.8936 26.4248H35.6787L31.1858 36.0189H40.2617ZM33.4445 26.1584L26.0518 41.9445V26.1584L33.4445 26.1584ZM47.6644 45.35L47.6644 25.0902L47.6644 24.0221H46.5962L26.0518 24.022V12H47.7841C53.9785 12 59 17.0215 59 23.2159V45.35H47.6644ZM47.6644 47.4864L47.6643 59H47.7841C53.9785 59 59 53.9785 59 47.7841V47.4864H47.6644Z" fill="#211041"/>
</svg>
