<svg width="22" height="22" viewBox="0 0 22 22" fill="none" xmlns="http://www.w3.org/2000/svg">
<path d="M7.75 4C8.30228 4 8.75 4.44772 8.75 5V10.4043C9.646 10.9232 10.25 11.8901 10.25 13C10.25 14.1097 9.64576 15.0758 8.75 15.5947V17C8.75 17.5523 8.30228 18 7.75 18H6.75C6.19772 18 5.75 17.5523 5.75 17V15.5947C4.85424 15.0758 4.25 14.1097 4.25 13C4.25 11.8901 4.854 10.9232 5.75 10.4043V5C5.75 4.44772 6.19772 4 6.75 4H7.75ZM7.25 12C6.69772 12 6.25 12.4477 6.25 13C6.25 13.5523 6.69772 14 7.25 14C7.80228 14 8.25 13.5523 8.25 13C8.25 12.4477 7.80228 12 7.25 12Z" fill="#8769A9"/>
<path d="M14.25 18C13.6977 18 13.25 17.5523 13.25 17V11.5957C12.354 11.0768 11.75 10.1099 11.75 9C11.75 7.89028 12.3542 6.92423 13.25 6.40527V5C13.25 4.44772 13.6977 4 14.25 4H15.25C15.8023 4 16.25 4.44772 16.25 5V6.40527C17.1458 6.92423 17.75 7.89028 17.75 9C17.75 10.1099 17.146 11.0768 16.25 11.5957V17C16.25 17.5523 15.8023 18 15.25 18H14.25ZM14.75 10C15.3023 10 15.75 9.55228 15.75 9C15.75 8.44772 15.3023 8 14.75 8C14.1977 8 13.75 8.44772 13.75 9C13.75 9.55228 14.1977 10 14.75 10Z" fill="#8769A9"/>
</svg>
