<svg width="190" height="29" fill="none" xmlns="http://www.w3.org/2000/svg"><path d="M39.314 21.61h.942v6.596h-.942V21.61zm12.613.82h-2.261v-.82h5.456v.82H52.86v5.776h-.933v-5.777zM78.4 28.28a3.7 3.7 0 0 1-1.79-.433 3.279 3.279 0 0 1-1.244-1.206 3.368 3.368 0 0 1-.452-1.733c0-.641.15-1.216.452-1.725.302-.515.72-.917 1.253-1.206a3.637 3.637 0 0 1 1.79-.443c.516 0 .987.088 1.414.264.427.17.792.424 1.093.763l-.612.594c-.497-.521-1.115-.782-1.857-.782-.49 0-.933.11-1.328.33-.396.22-.707.524-.933.914-.22.383-.33.813-.33 1.29 0 .478.11.912.33 1.3.226.384.537.686.933.905.395.22.838.33 1.328.33.735 0 1.354-.264 1.857-.791l.612.593c-.301.34-.669.597-1.102.773a3.678 3.678 0 0 1-1.414.264zm15.086 0a3.719 3.719 0 0 1-1.8-.433 3.307 3.307 0 0 1-1.262-1.215 3.35 3.35 0 0 1-.453-1.724c0-.635.151-1.21.453-1.725a3.239 3.239 0 0 1 1.262-1.206 3.656 3.656 0 0 1 1.8-.443c.66 0 1.257.148 1.79.443.534.29.952.691 1.254 1.206.301.51.452 1.084.452 1.725 0 .64-.15 1.218-.452 1.733a3.26 3.26 0 0 1-1.254 1.207 3.7 3.7 0 0 1-1.79.433zm0-.838c.484 0 .917-.11 1.3-.33.39-.22.695-.52.915-.904.226-.39.339-.823.339-1.3 0-.478-.113-.908-.34-1.291a2.367 2.367 0 0 0-.913-.914 2.565 2.565 0 0 0-1.3-.33c-.485 0-.924.11-1.32.33-.39.22-.697.524-.924.914-.22.383-.33.813-.33 1.29 0 .478.11.912.33 1.3.227.384.535.686.924.905.396.22.835.33 1.32.33zm19.438.764-.01-4.806-2.384 4.005h-.433l-2.384-3.977v4.778h-.905V21.61h.773l2.752 4.636 2.713-4.636h.773l.009 6.596h-.904zm13.843-6.596c.854 0 1.526.204 2.016.612.49.408.735.97.735 1.687 0 .716-.245 1.278-.735 1.687-.49.408-1.162.612-2.016.612h-1.63v1.998h-.943V21.61h2.573zm-.029 3.778c.597 0 1.053-.126 1.367-.377.314-.257.471-.625.471-1.102 0-.478-.157-.842-.471-1.093-.314-.258-.77-.387-1.367-.387h-1.601v2.96h1.601zm16.422 1.169h-3.505l-.726 1.649h-.97l2.987-6.596h.933l2.996 6.596h-.989l-.726-1.65zm-.33-.754-1.423-3.232-1.422 3.232h2.845zm17.088-4.193v6.596h-.773l-3.958-4.92v4.92h-.942V21.61h.773l3.957 4.918V21.61h.943zm12.886 4.315v2.28h-.933v-2.299l-2.62-4.296h1.008l2.111 3.477 2.12-3.477h.933l-2.619 4.315zM190 7.767h-3.344v3.267h-2.48V7.767h-3.324V5.422h3.324V2.155h2.48v3.267H190v2.345z" fill="#211041"/><path fill-rule="evenodd" clip-rule="evenodd" d="M7.246 7.264V.043h-.425A6.82 6.82 0 0 0 0 6.863v.4h7.246zm0 1.299H0v12.916a6.82 6.82 0 0 0 6.82 6.82h13.57v-6.914H7.245V8.563zm8.643 0 4.5 9.772V8.563h-4.5zm1.891 7.212 1.985 4.311H9.015l2.042-4.31h6.723zm-.598-1.299-2.65-5.753h-.134l-2.726 5.753h5.51zm-4.146-5.913-4.49 9.48v-9.48h4.49zm8.652 11.523V7.263H8.545V.044h13.216a6.82 6.82 0 0 1 6.82 6.82v13.223h-6.893zm0 1.3v6.913h.073a6.82 6.82 0 0 0 6.82-6.82v-.094h-6.893zM109.747 2.768h4.16v10.916h3.113V2.768h4.306V.23h-10.058l-1.521 2.537zM133.17 13.03c1.115.589 2.358.884 3.729.884 1.166 0 2.223-.205 3.171-.615a6.234 6.234 0 0 0 2.383-1.788l-1.999-1.845c-.91 1.064-2.037 1.595-3.382 1.595-.833 0-1.576-.179-2.23-.538a4.026 4.026 0 0 1-1.537-1.537c-.359-.654-.539-1.397-.539-2.23 0-.832.18-1.576.539-2.23a3.891 3.891 0 0 1 1.537-1.517c.654-.372 1.397-.558 2.23-.558 1.345 0 2.472.526 3.382 1.576l1.999-1.845A6.319 6.319 0 0 0 140.07.615c-.936-.41-1.986-.615-3.152-.615-1.384 0-2.633.301-3.748.903a6.667 6.667 0 0 0-2.614 2.48c-.628 1.05-.941 2.242-.941 3.574 0 1.333.313 2.53.941 3.594a6.853 6.853 0 0 0 2.614 2.48zM42.946 10.8h6.246l1.192 2.883h3.267L47.635.231H44.56l-5.996 13.453h3.19l1.192-2.883zm3.133-7.515 2.133 5.151h-4.267l2.134-5.15zm21.883 10.398V.231h-3.075v8.168L58.199.23h-2.576v13.453h3.075V5.516l6.708 8.168h2.556zm12.62-2.883h-6.246l-1.192 2.883h-3.19L75.95.231h3.075l6.015 13.453h-3.267l-1.191-2.883zm-.98-2.364-2.134-5.15-2.133 5.15h4.267zM90.126.231h-3.113v13.453h9.86v-2.537h-6.747V.231zm14.131 8.687v4.766h-3.113V8.879L95.935.231h3.306l3.594 5.977L106.429.23h3.056l-5.228 8.687zM123.577.23h3.114v13.453h-3.114V.231zm27.42 13.684c-1.922 0-3.421-.532-4.498-1.595-1.063-1.064-1.595-2.582-1.595-4.555V.23h3.114v7.418c0 2.409.999 3.613 2.998 3.613.974 0 1.717-.288 2.229-.864.513-.59.769-1.506.769-2.749V.231h3.075v7.534c0 1.973-.538 3.491-1.614 4.554-1.064 1.064-2.556 1.596-4.478 1.596zm21.969-8.303.019 8.072h2.921L175.868.231h-2.556l-4.959 8.36-5.035-8.36h-2.576v13.453h2.922V5.785l3.94 6.477h1.403l3.959-6.65z" fill="#211041"/></svg>