<svg width="22" height="22" viewBox="0 0 22 22" fill="none" xmlns="http://www.w3.org/2000/svg">
<path d="M17 14.5C17.5523 14.5 18 14.9477 18 15.5V16.5C18 17.0523 17.5523 17.5 17 17.5H5C4.44772 17.5 4 17.0523 4 16.5V15.5C4 14.9477 4.44772 14.5 5 14.5H17ZM17 9.5C17.5523 9.5 18 9.94772 18 10.5V11.5C18 12.0523 17.5523 12.5 17 12.5H5C4.44772 12.5 4 12.0523 4 11.5V10.5C4 9.94772 4.44772 9.5 5 9.5H17ZM10 4.5C10.5523 4.5 11 4.94772 11 5.5V6.5C11 7.05228 10.5523 7.5 10 7.5H5C4.44772 7.5 4 7.05228 4 6.5V5.5C4 4.94772 4.44772 4.5 5 4.5H10Z" fill="#8769A9"/>
</svg>
