<svg width="21" height="21" fill="none" xmlns="http://www.w3.org/2000/svg"><path fill-rule="evenodd" clip-rule="evenodd" d="M5.236 11.98 3.858 13.75l9.579 4.342.278-1.933 2.29-5.185A4.697 4.697 0 0 0 7.43 7.139l-2.194 4.84zm-1.207-.73L2.125 13.7a.594.594 0 0 0 .224.905l11.488 5.206a.594.594 0 0 0 .833-.456l.403-2.805 2.212-5.01a6.097 6.097 0 0 0-11.13-4.979l-2.126 4.69z" fill="#715F92"/><path fill-rule="evenodd" clip-rule="evenodd" d="M13.906 2.511a.944.944 0 0 1 1.723.767l-.6 1.584-1.894-.858.771-1.493zM6.679 16.98v.002a.892.892 0 0 0 1.616.73l-1.616-.732zm-1.33-.437a2.292 2.292 0 0 0 4.175 1.84l.738-1.316-4.424-2.005-.49 1.481z" fill="#715F92"/></svg>