<svg width="20" height="20" fill="none" xmlns="http://www.w3.org/2000/svg"><g clip-path="url(#a)"><mask id="b" fill="#fff"><path fill-rule="evenodd" clip-rule="evenodd" d="M7.021.7a.7.7 0 0 1 .7-.7h4.559a.7.7 0 0 1 .7.7v1.691c0 .29.18.548.445.668.351.159.69.343 1.011.55a.74.74 0 0 0 .765.03l1.48-.843a.7.7 0 0 1 .95.255l2.273 3.886a.7.7 0 0 1-.258.961l-1.293.738a.742.742 0 0 0-.36.725 7.789 7.789 0 0 1 .022 1.318.742.742 0 0 0 .362.7l1.27.723a.7.7 0 0 1 .258.962l-2.273 3.886a.7.7 0 0 1-.95.254l-1.242-.707a.74.74 0 0 0-.786.045 7.91 7.91 0 0 1-1.23.695.741.741 0 0 0-.445.668V19.3a.7.7 0 0 1-.7.7H7.721a.7.7 0 0 1-.7-.7v-1.526a.74.74 0 0 0-.42-.657 7.927 7.927 0 0 1-1.091-.654.74.74 0 0 0-.797-.053l-1.394.794a.7.7 0 0 1-.95-.255L.095 13.063a.7.7 0 0 1 .257-.961l1.538-.876a.741.741 0 0 0 .363-.686 7.825 7.825 0 0 1 .017-1.044.742.742 0 0 0-.36-.711L.353 7.897a.7.7 0 0 1-.258-.961L2.368 3.05a.7.7 0 0 1 .951-.255l1.629.929a.74.74 0 0 0 .776-.039c.28-.187.573-.356.876-.507a.74.74 0 0 0 .421-.656V.7zm2.994 11.851c1.454 0 2.633-1.164 2.633-2.6 0-1.435-1.179-2.6-2.633-2.6-1.455 0-2.634 1.165-2.634 2.6 0 1.436 1.18 2.6 2.634 2.6z"/></mask><path d="m6.6 3.178-.666-1.344.666 1.344zM.096 6.936l-1.295-.757 1.295.757zM1.91 8.785l.743-1.303-.743 1.303zM.353 12.102l-.742-1.303.742 1.303zm2.966 5.102-.743-1.303.743 1.303zm-.95-.255-1.296.757 1.295-.757zm3.14-.486.874-1.22-.873 1.22zm-.796-.053.743 1.303-.743-1.303zm1.887.707-.666 1.344.666-1.343zm6.825.12-.619-1.366.619 1.366zm6.222-5.135.743-1.303-.743 1.303zm.258.962-1.295-.758 1.295.758zm-1.89-2.385 1.497.102-1.497-.102zm.362.7.743-1.304-.743 1.303zm-.383-2.018 1.492-.152-1.492.152zm1.91-2.424 1.295-.758-1.295.758zm-.258.961-.742-1.303.742 1.303zm-2.965-5.102-.743-1.303.743 1.303zm.95.255-1.294.757 1.295-.757zm-2.43.588.743 1.304-.743-1.304zm-1.776-.58-.619 1.366.619-1.366zm-7.701.626-.832-1.248.832 1.248zm9.716 12.812-.743 1.303.743-1.303zM2.368 3.05l-1.294-.757 1.294.757zm.951-.255-.742 1.303.742-1.303zM12.28-1.5H7.722v3h4.559v-3zm2.2 3.891V.7h-3v1.691h3zm.767-.045a9.414 9.414 0 0 0-1.203-.654l-1.237 2.733c.285.13.559.278.82.446l1.62-2.525zm.692-.853-1.48.843 1.486 2.607 1.48-.844-1.486-2.606zm5.26 4.686-2.271-3.885-2.59 1.514 2.272 3.886 2.59-1.515zm-2.102 3.76 1.293-.738-1.485-2.606-1.294.737 1.486 2.607zm.437.209c0-.317-.016-.63-.047-.939l-2.985.303c.021.209.032.42.032.636h3zm-.021.633c.014-.21.021-.42.021-.633h-3c0 .144-.005.287-.014.429l2.993.204zm.878.018-1.27-.724-1.486 2.606 1.27.724L20.39 10.8zm-1.463 6.908L21.2 13.82l-2.59-1.514-2.273 3.885 2.59 1.515zm-4.23.093 1.242.707 1.485-2.606-1.241-.707-1.486 2.606zm-.654.804a9.416 9.416 0 0 0 1.463-.827l-1.703-2.47a6.413 6.413 0 0 1-.997.563l1.237 2.734zm-2.564-.7V19.3h3v-1.395h-3zm.8.596H7.721v3h4.558v-3zm-3.758.8v-1.526h-3V19.3h3zm-3.884-1.618a9.41 9.41 0 0 0 1.297.78l1.332-2.688a6.414 6.414 0 0 1-.883-.531l-1.746 2.44zm-.575.825 1.394-.794-1.486-2.607-1.394.795 1.486 2.606zm-5.261-4.686 2.272 3.885 2.59-1.514-2.272-3.886-2.59 1.515zm2.347-3.899-1.537.877 1.485 2.606 1.538-.876-1.486-2.607zm-.404.226c0 .156.004.312.011.467l2.997-.15a6.319 6.319 0 0 1-.008-.317h-3zm.032-.777a9.299 9.299 0 0 0-.032.777h3a6.3 6.3 0 0 1 .022-.526L.776 9.37zM-.389 9.2l1.556.887 1.486-2.606-1.557-.888-1.485 2.607zm1.463-6.908L-1.2 6.179l2.59 1.514 2.272-3.886-2.59-1.514zm4.617.127-1.629-.928-1.485 2.606 1.628.929L5.691 2.42zm.243-.586c-.361.18-.71.381-1.042.603l1.664 2.496c.227-.152.464-.289.71-.41L5.935 1.833zM5.521.7v1.822h3V.7h-3zm5.627 9.251c0 .59-.49 1.1-1.133 1.1v3c2.264 0 4.133-1.817 4.133-4.1h-3zm-1.133-1.1c.644 0 1.133.511 1.133 1.1h3c0-2.282-1.869-4.1-4.133-4.1v3zm-1.134 1.1c0-.589.49-1.1 1.134-1.1v-3c-2.265 0-4.134 1.818-4.134 4.1h3zm1.134 1.1c-.644 0-1.134-.51-1.134-1.1h-3c0 2.283 1.87 4.1 4.134 4.1v-3zM7.267 4.522a2.24 2.24 0 0 0 1.254-2h-3a.76.76 0 0 1 .413-.688l1.333 2.688zm-6.17 2.072a.8.8 0 0 1 .294 1.1L-1.2 6.178A2.2 2.2 0 0 0-.389 9.2l1.485-2.607zm2.669 3.028a2.242 2.242 0 0 0-1.113-2.14l-1.486 2.606a.759.759 0 0 1-.39-.717l2.989.25zm-1.132 2.907a2.24 2.24 0 0 0 1.118-2.064l-2.997.15a.76.76 0 0 1 .393-.693l1.486 2.607zm-1.243-.223a.8.8 0 0 1-.295 1.1l-1.485-2.607a2.2 2.2 0 0 0-.81 3.022l2.59-1.515zm1.185 3.595a.8.8 0 0 1 1.087.291l-2.59 1.514a2.2 2.2 0 0 0 2.989.801l-1.486-2.606zm3.807-.658a2.24 2.24 0 0 0-2.413-.137l1.486 2.607a.76.76 0 0 1-.82-.03l1.747-2.44zm2.138 2.531c0-.9-.537-1.645-1.255-2L5.934 18.46a.76.76 0 0 1-.413-.687h3zm-.8.726a.8.8 0 0 1 .8.8h-3a2.2 2.2 0 0 0 2.2 2.2v-3zm3.758.8a.8.8 0 0 1 .8-.8v3a2.2 2.2 0 0 0 2.2-2.2h-3zm1.327-3.43a2.24 2.24 0 0 0-1.327 2.035h3a.76.76 0 0 1-.436.699l-1.237-2.733zm3.531.322a.8.8 0 0 1 1.087-.29l-1.486 2.606a2.2 2.2 0 0 0 2.99-.801l-2.59-1.515zm2.567-2.787a.8.8 0 0 1-.294-1.098l2.59 1.514a2.2 2.2 0 0 0-.81-3.022l-1.486 2.606zm-2.385-2.828a2.241 2.241 0 0 0 1.115 2.104l1.486-2.606a.76.76 0 0 1 .392.706l-2.993-.204zm1.09-3.245a2.242 2.242 0 0 0-1.108 2.18l2.985-.303a.759.759 0 0 1-.39.73L17.61 7.332zm1 .362a.8.8 0 0 1 .295-1.1l1.485 2.607a2.2 2.2 0 0 0 .81-3.022l-2.59 1.515zm-1.185-3.595a.8.8 0 0 1-1.087-.291l2.59-1.514a2.2 2.2 0 0 0-2.989-.801l1.486 2.606zm-3.798.772a2.24 2.24 0 0 0 2.318.072l-1.486-2.607a.76.76 0 0 1 .788.01l-1.62 2.525zM11.48 2.39c0 .93.573 1.694 1.326 2.034l1.237-2.733a.76.76 0 0 1 .437.699h-3zM4.204 5.027a2.24 2.24 0 0 0 2.351-.094L4.892 2.437a.76.76 0 0 1 .799-.017L4.205 5.027zM7.721-1.5a2.2 2.2 0 0 0-2.2 2.2h3a.8.8 0 0 1-.8.8v-3zm8.462 16.694a2.24 2.24 0 0 0-2.38.113l1.703 2.47a.76.76 0 0 1-.809.023l1.486-2.606zM3.663 3.807a.8.8 0 0 1-1.086.291l1.485-2.606a2.2 2.2 0 0 0-2.988.8l2.59 1.515zM12.28 1.5a.8.8 0 0 1-.8-.8h3a2.2 2.2 0 0 0-2.2-2.2v3z" fill="#715F92" mask="url(#b)"/></g><defs><clipPath id="a"><path fill="#fff" d="M0 0h20v20H0z"/></clipPath></defs></svg>