<svg width="22" height="22" viewBox="0 0 22 22" fill="none" xmlns="http://www.w3.org/2000/svg">
<g clip-path="url(#clip0_2349_1439)">
<path d="M16.5843 16.1296C16.9746 15.7394 17.6078 15.7397 17.9984 16.1296L18.3528 16.4832C18.743 16.8737 18.7431 17.5077 18.3528 17.8982L17.6448 18.6052C17.2544 18.9952 16.6211 18.9953 16.2308 18.6052L15.8773 18.2517C15.4869 17.8612 15.4869 17.2272 15.8773 16.8367L16.5843 16.1296ZM3.50323 16.1228C3.89368 15.7326 4.52683 15.7326 4.9173 16.1228L5.62433 16.8298C6.01461 17.2204 6.01476 17.8544 5.62433 18.2449L5.27081 18.5984C4.8804 18.9883 4.24714 18.9883 3.85675 18.5984L3.14972 17.8914C2.75938 17.5009 2.75949 16.8668 3.14972 16.4763L3.50323 16.1228ZM10.7493 4.74976C14.0628 4.74988 16.7492 7.43626 16.7493 10.7498C16.7492 14.0633 14.0628 16.7496 10.7493 16.7498C7.43597 16.7495 4.74947 14.0632 4.74933 10.7498C4.7495 7.43634 7.43599 4.75001 10.7493 4.74976ZM3.85675 3.4021C4.24723 3.01166 4.8803 3.01172 5.27081 3.4021L5.62433 3.75562C6.01466 4.14614 6.01475 4.77921 5.62433 5.16968L4.9173 5.87671C4.52682 6.26705 3.89372 6.26703 3.50323 5.87671L3.14972 5.52319C2.75939 5.13271 2.75939 4.49962 3.14972 4.10913L3.85675 3.4021ZM16.2308 3.39526C16.6212 3.00489 17.2543 3.00503 17.6448 3.39526L18.3528 4.10229C18.7427 4.49274 18.7428 5.12599 18.3528 5.51636L17.9984 5.86987C17.6079 6.25992 16.9747 6.25995 16.5843 5.86987L15.8773 5.16284C15.4871 4.77242 15.4872 4.13924 15.8773 3.74878L16.2308 3.39526Z" fill="white"/>
<path d="M11.4951 18.7505C12.0471 18.7506 12.4949 19.1975 12.4951 19.7495V20.2495C12.4951 20.8017 12.0473 21.2504 11.4951 21.2505H10.4951C9.943 21.2505 9.49538 20.8025 9.49512 20.2505V19.7505C9.49512 19.1982 9.94283 18.7505 10.4951 18.7505H11.4951ZM2.25 9.49561C2.80217 9.49574 3.25 9.9434 3.25 10.4956V11.4956C3.24967 12.0475 2.80197 12.4955 2.25 12.4956H1.75C1.19797 12.4955 0.75033 12.0476 0.75 11.4956V10.4956C0.75 9.94336 1.19777 9.49567 1.75 9.49561H2.25ZM20.25 9.49463C20.802 9.49476 21.2497 9.94265 21.25 10.4946V11.4946C21.2499 12.0468 20.8021 12.4945 20.25 12.4946H19.75C19.1978 12.4946 18.7501 12.0468 18.75 11.4946V10.4946C18.7503 9.94261 19.1979 9.49469 19.75 9.49463H20.25ZM11.4951 0.749512C12.0471 0.749644 12.4949 1.19753 12.4951 1.74951V2.24951C12.4951 2.80171 12.0473 3.24938 11.4951 3.24951H10.4951C9.94283 3.24951 9.49512 2.8018 9.49512 2.24951V1.74951C9.49538 1.19745 9.943 0.749512 10.4951 0.749512H11.4951Z" fill="white"/>
</g>
<defs>
<clipPath id="clip0_2349_1439">
<rect width="22" height="22" fill="white"/>
</clipPath>
</defs>
</svg>
