<svg width="30" height="29" fill="none" xmlns="http://www.w3.org/2000/svg"><path d="M12.702 1.732a2.6 2.6 0 0 1 4.596 0L29.653 24.27c.998 1.821-.274 4.078-2.298 4.078H2.645C.621 28.348-.65 26.09.347 24.27L12.702 1.732z" fill="#FF8D24"/><path d="m16.485 9.534-.27 8.753H14.26l-.277-8.753h2.503zm-2.568 11.462c0-.369.12-.675.358-.917.245-.248.566-.373.963-.373.402 0 .723.125.962.373.239.242.358.548.358.917 0 .358-.12.661-.358.91-.24.248-.56.372-.962.372-.397 0-.718-.124-.963-.373a1.26 1.26 0 0 1-.358-.909z" fill="#fff"/></svg>